# AST/ASF file generated using VICON BodyLanguage
# -----------------------------------------------
:version 1.10
:name VICON
:units
  mass 1.0
  length 0.45
  angle deg
:documentation
   .ast/.asf automatically generated from VICON data using
   VICON BodyBuilder and BodyLanguage model FoxedUp or BRILLIANT.MOD
:root
   order TX TY TZ RX RY RZ
   axis XYZ
   position 0 0 0  
   orientation 0 0 0 
:bonedata
  begin
     id 1 
     name lhipjoint
     direction 0.573633 -0.743009 0.344793 
     length 2.46257 
     axis 0 0 0  XYZ
  end
  begin
     id 2 
     name lfemur
     direction 0.34202 -0.939693 0  
     length 7.3842  
     axis 0 0 20  XYZ
    dof rx ry rz
    limits (-160.0 20.0)
           (-70.0 70.0)
           (-60.0 70.0)
  end
  begin
     id 3 
     name ltibia
     direction 0.34202 -0.939693 0   
     length 7.50407   
     axis 0 0 20   XYZ
    dof rx
    limits (-10.0 170.0)
  end
  begin
     id 4 
     name lfoot
     direction 0.110749 -0.304281 0.946123   
     length 1.95925   
     axis -90 7.62852e-016 20   XYZ
    dof rx rz
    limits (-45.0 90.0)
           (-70.0 20.0)
  end
  begin
     id 5 
     name ltoes
     direction 1.53554e-011 -4.21843e-011 1   
     length 0.978318   
     axis -90 7.62852e-016 20   XYZ
    dof rx
    limits (-90.0 20.0)
  end
  begin
     id 6 
     name rhipjoint
     direction -0.488109 -0.791693 0.367385   
     length 2.31113  
     axis 0 0 0  XYZ 
  end
  begin
     id 7 
     name rfemur
     direction -0.34202 -0.939693 0   
     length 7.40965   
     axis 0 0 -20   XYZ
    dof rx ry rz
    limits (-160.0 20.0)
           (-70.0 70.0)
           (-70.0 60.0)
  end
  begin
     id 8 
     name rtibia
     direction -0.34202 -0.939693 0   
     length 7.55548   
     axis 0 0 -20   XYZ
    dof rx
    limits (-10.0 170.0)
 end
 begin
     id 9 
     name rfoot
     direction -0.127594 -0.350561 0.927808   
     length 2.07199  
     axis -90 -7.62852e-016 -20   XYZ
    dof rx rz
    limits (-45.0 90.0)
           (-20.0 70.0)
  end
  begin
     id 10 
     name rtoes
     direction -1.53542e-011 -4.21909e-011 1   
     length 1.02667   
     axis -90 -7.62852e-016 -20   XYZ
    dof rx
    limits (-90.0 20.0)
  end
  begin
     id 11 
     name lowerback
     direction -0.0103342 0.997298 -0.0727278   
     length 2.02836   
     axis 0 0 0   XYZ
    dof rx ry rz
    limits (-20.0 45.0)
           (-30.0 30.0)
           (-30.0 30.0)
  end
  begin
     id 12 
     name upperback
     direction 0.0171146 0.999786 -0.011606   
     length 2.03179   
     axis 0 0 0   XYZ
    dof rx ry rz
    limits (-20.0 45.0)
           (-30.0 30.0)
           (-30.0 30.0)
  end
  begin
     id 13 
     name thorax
     direction 0.0216927 0.999513 0.0224343   
     length 2.03882   
     axis 0 0 0   XYZ
    dof rx ry rz
    limits (-20.0 45.0)
           (-30.0 30.0)
           (-30.0 30.0)
  end
  begin
     id 14 
     name lowerneck
     direction 0.000989287 0.993907 0.110221   
     length 1.75428   
     axis 0 0 0   XYZ
    dof rx ry rz
    limits (-20.0 45.0)
           (-30.0 30.0)
           (-30.0 30.0)
  end
  begin
     id 15 
     name upperneck
     direction -0.0172474 0.994813 -0.100253   
     length 1.77058   
     axis 0 0 0   XYZ
    dof rx ry rz
    limits (-20.0 45.0)
           (-30.0 30.0)
           (-30.0 30.0)
  end
  begin
     id 16
     name head
     direction -0.00486455 0.99894 -0.0457663  
     length 1.77427  
     axis 0 0 0   XYZ
    dof rx ry rz
    limits (-20.0 45.0)
           (-30.0 30.0)
           (-30.0 30.0)
  end
  begin
     id 17 
     name lclavicle
     direction 0.927314 0.333734 -0.169441  
     length 3.97584  
     axis 0 0 0   XYZ
    dof ry rz
    limits (-20.0 10.0)
           (0.0 20.0)
  end
  begin
     id 18 
     name lhumerus
     direction 1 -4.48965e-011 -3.25313e-028   
     length 4.76468   
     axis 180 -30 -90   XYZ
    dof rx ry rz
    limits (-60.0 90.0)
           (-90.0 90.0)
           (-90.0 90.0)
  end
  begin
     id 19
     name lradius
     direction 1 -4.48969e-011 -2.8465e-028   
     length 3.52712   
     axis -180 -30 -90   XYZ
    dof rx
    limits (-10.0 170.0)
  end
  begin
     id 20
     name lwrist
     direction 1 -4.4896e-011 -7.78665e-028   
     length 1.76356   
     axis 1.91374e-015 90 90   XYZ
    dof ry
    limits (-180.0 0.0)
 end
  begin
     id 21 
     name lhand
     direction 1 -4.48959e-011 -1.55733e-027   
     length 0.859564   
     axis 9.9371e-016 90 90   XYZ
    dof rx rz
    limits (-90.0 90.0)
           (-45.0 45.0)
  end
  begin
     id 22 
     name lfingers
     direction 1 -4.48965e-011 -3.11466e-027   
     length 0.693002   
     axis 1.98742e-015 90 90   XYZ
    dof rx
    limits (0.0 90.0)
  end
  begin
     id 23
     name lthumb
     direction 0.707107 -6.34948e-011 0.707107   
     length 0.995017   
     axis -90 45 2.85299e-015   XYZ
    dof rx rz
    limits (-45.0 45.0)
           (-45.0 45.0)
  end
  begin
     id 24 
     name rclavicle
     direction -0.899388 0.348209 -0.264294   
     length 3.68366  
     axis 0 0 0   XYZ 
    dof ry rz
    limits (-10.0 20.0)
           (-20.0 0.0)
  end
  begin
     id 25 
     name rhumerus
     direction -1 -4.48965e-011 -3.01536e-027  
     length 4.90577   
     axis 180 30 90   XYZ
    dof rx ry rz
    limits (-90.0 60.0)
           (-90.0 90.0)
           (-90.0 90.0)
  end
  begin
     id 26 
     name rradius
     direction -1 -4.48966e-011 3.93291e-027   
     length 3.42692   
     axis -180 30 90   XYZ
    dof rx
    limits (-10.0 170.0)
  end
  begin
     id 27 
     name rwrist
     direction -1 -4.48969e-011 -7.78665e-028   
     length 1.71346   
     axis 1.91374e-015 -90 -90   XYZ
    dof ry
    limits (-180.0 0.0)
  end
  begin
     id 28
     name rhand
     direction -1 -4.48967e-011 -1.55733e-027   
     length 0.740957   
     axis 9.9371e-016 -90 -90   XYZ
    dof rx rz
    limits (-90.0 90.0)
           (-45.0 45.0)
  end
  begin
     id 29
     name rfingers
     direction -1 -4.48949e-011 -3.11466e-027   
     length 0.597378   
     axis 1.98742e-015 -90 -90   XYZ
    dof rx
    limits (0.0 90.0)
  end
  begin
     id 30
     name rthumb
     direction -0.707107 -6.34931e-011 0.707107   
     length 0.857719   
     axis -90 -45 -2.85299e-015   XYZ
    dof rx rz
    limits (-45.0 45.0)
           (-45.0 45.0)
  end
:hierarchy
  begin
    root lhipjoint rhipjoint lowerback
    lhipjoint lfemur
    lfemur ltibia
    ltibia lfoot
    lfoot ltoes
    rhipjoint rfemur
    rfemur rtibia
    rtibia rfoot
    rfoot rtoes
    lowerback upperback
    upperback thorax
    thorax lowerneck lclavicle rclavicle
    lowerneck upperneck
    upperneck head
    lclavicle lhumerus
    lhumerus lradius
    lradius lwrist
    lwrist lhand lthumb
    lhand lfingers
    rclavicle rhumerus
    rhumerus rradius
    rradius rwrist
    rwrist rhand rthumb
    rhand rfingers
  end

#!OML:ASF E:\I on waltz\AllaLogoMonkeySwing\Project 1\Capture day 1\Session 1\Subject1.ASF
:FULLY-SPECIFIED
:DEGREES
92
root 0.203822 17.951 -3.36546 2.62884 0.0412045 -1.35726
lowerback 3.44011 -1.21658 -2.18678
upperback -0.66222 -1.67523 1.74777
thorax -2.49499 -0.791343 3.11825
lowerneck -13.8596 -1.93207 -3.38612
upperneck 25.0738 -2.04935 0.570068
head 10.3447 -1.20396 0.510517
rclavicle 1.7903e-014 -1.92821e-014
rhumerus -28.2468 -23.7636 -77.8273
rradius 18.668
rwrist 11.7198
rhand -5.74405 -35.9986
rfingers 7.12502
rthumb 20.0784 -64.9812
lclavicle 1.7903e-014 -1.92821e-014
lhumerus -39.3377 26.2981 78.7884
lradius 33.9529
lwrist -5.62233
lhand -6.7391 -12.3023
lfingers 7.12502
lthumb 19.1217 16.7777
rfemur -1.76354 0.670419 19.7067
rtibia 15.2929
rfoot -14.2068 -8.54329
rtoes 12.1398
lfemur 2.48146 2.16081 -17.7012
ltibia 9.26
lfoot -12.7344 3.92559
ltoes -28.9608
93
root 0.206741 17.9509 -3.36418 2.67989 -0.06397 -1.30172
lowerback 3.43876 -1.1876 -2.18341
upperback -0.634172 -1.63685 1.72967
thorax -2.4686 -0.773115 3.09511
lowerneck -13.8087 -1.59391 -3.14563
upperneck 25.0533 -1.6359 0.582924
head 10.3147 -0.989328 0.528615
rclavicle 2.72708e-015 9.14409e-015
rhumerus -28.158 -23.095 -78.2215
rradius 18.8821
rwrist 10.2474
rhand -6.59979 -35.6025
rfingers 7.12502
rthumb 19.2557 -64.6692
lclavicle 2.72708e-015 9.14409e-015
lhumerus -39.3126 26.1944 78.8107
lradius 33.9358
lwrist -5.58152
lhand -6.73366 -12.365
lfingers 7.12502
lthumb 19.127 16.7144
rfemur -1.82223 0.784005 19.6266
rtibia 15.2843
rfoot -14.2116 -8.46882
rtoes 12.6422
lfemur 2.41335 2.23911 -17.7736
ltibia 9.31489
lfoot -12.7233 3.96977
ltoes -28.9862
94
root 0.210938 17.9504 -3.36382 2.74484 -0.149238 -1.28945
lowerback 3.44201 -1.09641 -2.06834
upperback -0.620853 -1.51141 1.67676
thorax -2.4696 -0.712609 2.96901
lowerneck -13.8051 -1.38458 -2.8026
upperneck 25.0581 -1.38614 0.437173
head 10.3056 -0.858688 0.45129
rclavicle 2.21148e-014 -2.04748e-014
rhumerus -28.1686 -22.6525 -78.5719
rradius 19.0913
rwrist 8.38372
rhand -8.03532 -34.7959
rfingers 7.12502
rthumb 17.8749 -63.9944
lclavicle 2.21148e-014 -2.04748e-014
lhumerus -39.2241 25.7852 78.9219
lradius 33.9034
lwrist -5.55235
lhand -6.68493 -12.3461
lfingers 7.12502
lthumb 19.1738 16.7288
rfemur -1.92114 0.801424 19.5833
rtibia 15.3193
rfoot -14.1832 -8.408
rtoes 12.7156
lfemur 2.32822 2.26589 -17.8191
ltibia 9.36593
lfoot -12.7321 4.05743
ltoes -28.9663
95
root 0.215868 17.9488 -3.36563 2.80438 -0.206618 -1.32396
lowerback 3.49754 -0.953318 -1.86228
upperback -0.629883 -1.31349 1.61768
thorax -2.52896 -0.616169 2.78304
lowerneck -13.826 -1.28093 -2.3675
upperneck 25.1389 -1.25421 0.0899549
head 10.3305 -0.797461 0.271418
rclavicle -2.17421e-015 -2.66371e-014
rhumerus -28.3937 -23.1043 -78.4473
rradius 19.4596
rwrist 8.25187
rhand -7.86982 -34.8239
rfingers 7.12502
rthumb 18.0341 -64.0078
lclavicle -2.17421e-015 -2.66371e-014
lhumerus -39.1633 25.1087 79.1257
lradius 33.9218
lwrist -5.43664
lhand -6.64531 -12.3017
lfingers 7.12502
lthumb 19.2119 16.7693
rfemur -2.03175 0.726236 19.5899
rtibia 15.3787
rfoot -14.1453 -8.29593
rtoes 12.4707
lfemur 2.23952 2.29364 -17.8143
ltibia 9.41792
lfoot -12.7745 4.11822
ltoes -28.86
96
root 0.219073 17.9467 -3.36824 2.86423 -0.269026 -1.36023
lowerback 3.55864 -0.883005 -1.72945
upperback -0.616329 -1.21466 1.6091
thorax -2.55824 -0.568565 2.69519
lowerneck -13.8864 -1.12286 -2.03932
upperneck 25.2311 -1.03198 -0.20343
head 10.3687 -0.698866 0.13995
rclavicle -5.00689e-015 3.97569e-016
rhumerus -28.5458 -23.6315 -78.2102
rradius 19.8736
rwrist 9.30543
rhand -6.3823 -35.6587
rfingers 7.12502
rthumb 19.4648 -64.7044
lclavicle -5.00689e-015 3.97569e-016
lhumerus -39.1461 24.7115 79.2415
lradius 33.9372
lwrist -5.23394
lhand -6.70035 -12.2315
lfingers 7.12502
lthumb 19.159 16.8448
rfemur -2.1445 0.664934 19.6147
rtibia 15.463
rfoot -14.1637 -8.17946
rtoes 12.355
lfemur 2.13785 2.35892 -17.7867
ltibia 9.48801
lfoot -12.7845 4.11593
ltoes -28.8321
97
root 0.221453 17.9455 -3.3681 2.87777 -0.390069 -1.38118
lowerback 3.6376 -0.922632 -1.7291
upperback -0.555211 -1.26649 1.69294
thorax -2.5348 -0.594806 2.78522
lowerneck -14.0077 -0.849362 -1.88021
upperneck 25.2781 -0.62005 -0.432561
head 10.4039 -0.522022 0.0842975
rclavicle 1.08586e-014 -2.78299e-015
rhumerus -28.4559 -23.355 -78.2992
rradius 20.1957
rwrist 9.48251
rhand -5.73511 -36.0253
rfingers 7.12502
rthumb 20.087 -65.0069
lclavicle 1.08586e-014 -2.78299e-015
lhumerus -39.1775 24.8005 79.2489
lradius 33.9439
lwrist -5.0874
lhand -6.85595 -12.119
lfingers 7.12502
lthumb 19.0094 16.9721
rfemur -2.19057 0.69333 19.6332
rtibia 15.5278
rfoot -14.2273 -8.09188
rtoes 12.5381
lfemur 2.12024 2.38793 -17.7789
ltibia 9.53086
lfoot -12.7677 4.19306
ltoes -28.9173
98
root 0.223836 17.9453 -3.36591 2.85656 -0.541774 -1.40646
lowerback 3.74339 -1.00204 -1.76421
upperback -0.483311 -1.37252 1.81257
thorax -2.51014 -0.647545 2.93576
lowerneck -14.0968 -0.540239 -1.75856
upperneck 25.2764 -0.142954 -0.68653
head 10.4168 -0.321911 0.0350951
rclavicle 8.57259e-016 3.37934e-015
rhumerus -28.2557 -22.745 -78.5329
rradius 20.3937
rwrist 9.03554
rhand -5.79989 -35.9928
rfingers 7.12502
rthumb 20.0247 -64.9809
lclavicle 8.57259e-016 3.37934e-015
lhumerus -39.2792 25.1245 79.1718
lradius 33.9468
lwrist -5.15587
lhand -6.88437 -12.0893
lfingers 7.12502
lthumb 18.982 17.0044
rfemur -2.18385 0.775198 19.6569
rtibia 15.5235
rfoot -14.2326 -8.01834
rtoes 12.6105
lfemur 2.14708 2.41889 -17.7635
ltibia 9.59008
lfoot -12.7721 4.32309
ltoes -28.9312
99
root 0.226043 17.9449 -3.36304 2.881 -0.7062 -1.4251
lowerback 3.78218 -1.00254 -1.74039
upperback -0.415599 -1.37162 1.86075
thorax -2.46165 -0.648546 2.97192
lowerneck -14.1344 -0.317347 -1.59995
upperneck 25.2248 0.172948 -0.836738
head 10.4036 -0.179231 -0.00407001
rclavicle -2.93704e-014 3.65764e-014
rhumerus -28.1255 -22.4386 -78.689
rradius 20.5756
rwrist 8.68296
rhand -5.72479 -36.0588
rfingers 7.12502
rthumb 20.0969 -65.0393
lclavicle -2.93704e-014 3.65764e-014
lhumerus -39.2991 25.2567 79.094
lradius 33.9098
lwrist -5.36262
lhand -6.73572 -12.1184
lfingers 7.12502
lthumb 19.125 16.9613
rfemur -2.22407 0.876272 19.6754
rtibia 15.5146
rfoot -14.2043 -7.96195
rtoes 12.3684
lfemur 2.12793 2.4785 -17.7501
ltibia 9.64317
lfoot -12.794 4.44693
ltoes -29.013
100
root 0.228427 17.9447 -3.36034 2.94364 -0.876246 -1.39287
lowerback 3.78315 -0.946558 -1.71211
upperback -0.358286 -1.29656 1.83345
thorax -2.40918 -0.612967 2.92271
lowerneck -14.1896 -0.167871 -1.43619
upperneck 25.1682 0.342892 -0.834983
head 10.3927 -0.0848358 -0.00905255
rclavicle 9.51682e-015 -1.61016e-014
rhumerus -28.0766 -22.3437 -78.8268
rradius 20.7262
rwrist 8.14676
rhand -5.99444 -35.796
rfingers 7.12502
rthumb 19.8377 -64.8036
lclavicle 9.51682e-015 -1.61016e-014
lhumerus -39.2228 25.1941 79.0148
lradius 33.8162
lwrist -5.54097
lhand -6.59525 -12.1902
lfingers 7.12502
lthumb 19.2601 16.8761
rfemur -2.30851 1.0137 19.6322
rtibia 15.5324
rfoot -14.2406 -7.90484
rtoes 12.5318
lfemur 2.08639 2.54692 -17.8017
ltibia 9.64711
lfoot -12.7987 4.54948
ltoes -29.1059
101
root 0.231329 17.9448 -3.3581 2.99358 -1.01229 -1.37434
lowerback 3.80768 -0.865137 -1.65963
upperback -0.326622 -1.18721 1.77718
thorax -2.3994 -0.559836 2.829
lowerneck -14.1998 -0.0811361 -1.2415
upperneck 25.1416 0.40402 -0.791287
head 10.3844 -0.0325841 -0.0185537
rclavicle 3.52843e-015 1.72943e-014
rhumerus -28.1092 -22.3405 -78.9445
rradius 20.7945
rwrist 7.30844
rhand -6.65494 -35.1795
rfingers 7.12502
rthumb 19.2027 -64.2515
lclavicle 3.52843e-015 1.72943e-014
lhumerus -39.1451 25.0027 78.9084
lradius 33.6405
lwrist -5.74683
lhand -6.51114 -12.438
lfingers 7.12502
lthumb 19.3409 16.6202
rfemur -2.3824 1.09248 19.5998
rtibia 15.5861
rfoot -14.2802 -7.87649
rtoes 12.506
lfemur 2.06084 2.62141 -17.8385
ltibia 9.62709
lfoot -12.7569 4.60299
ltoes -29.1072
102
root 0.23421 17.9447 -3.35621 3.05125 -1.09903 -1.32947
lowerback 3.82626 -0.750048 -1.62098
upperback -0.322965 -1.03402 1.6939
thorax -2.41753 -0.48414 2.71294
lowerneck -14.0719 -0.0392618 -1.0465
upperneck 25.08 0.390973 -0.716659
head 10.3366 -0.0099796 -0.0267152
rclavicle 7.56624e-015 -1.25234e-014
rhumerus -28.3263 -22.6179 -78.8908
rradius 20.9829
rwrist 6.88866
rhand -6.92249 -34.8233
rfingers 7.12502
rthumb 18.9454 -63.9206
lclavicle 7.56624e-015 -1.25234e-014
lhumerus -39.0666 24.6339 78.8695
lradius 33.4873
lwrist -5.91357
lhand -6.4635 -12.68
lfingers 7.12502
lthumb 19.3867 16.3736
rfemur -2.46405 1.07365 19.5316
rtibia 15.6623
rfoot -14.3058 -7.8438
rtoes 12.0265
lfemur 2.01843 2.63193 -17.9147
ltibia 9.61706
lfoot -12.7504 4.65091
ltoes -29.0573
103
root 0.237913 17.9446 -3.35377 3.11914 -1.15628 -1.23831
lowerback 3.86622 -0.725013 -1.64648
upperback -0.325309 -1.00304 1.65752
thorax -2.44441 -0.468181 2.68875
lowerneck -13.927 0.0919166 -0.887772
upperneck 24.9589 0.541128 -0.747422
head 10.2644 0.0718185 -0.045117
rclavicle -5.7896e-015 -7.55382e-015
rhumerus -28.5118 -22.7355 -78.8144
rradius 21.1776
rwrist 6.89833
rhand -6.91623 -34.6286
rfingers 7.12502
rthumb 18.9514 -63.7253
lclavicle -5.7896e-015 -7.55382e-015
lhumerus -39.066 24.4636 78.8385
lradius 33.4511
lwrist -5.93061
lhand -6.39632 -12.7239
lfingers 7.12502
lthumb 19.4513 16.3232
rfemur -2.55793 1.05593 19.3991
rtibia 15.6965
rfoot -14.3421 -7.77124
rtoes 12.0992
lfemur 1.96319 2.64801 -18.0493
ltibia 9.61946
lfoot -12.8153 4.66861
ltoes -28.9298
104
root 0.242518 17.9449 -3.35074 3.17193 -1.22196 -1.23139
lowerback 3.9403 -0.814714 -1.63552
upperback -0.289946 -1.12139 1.72599
thorax -2.44156 -0.527374 2.76103
lowerneck -13.9716 0.292885 -0.859842
upperneck 24.8907 0.836604 -0.819427
head 10.2487 0.201996 -0.0373698
rclavicle -6.21202e-016 -1.47101e-014
rhumerus -28.4616 -22.392 -78.8822
rradius 21.2334
rwrist 6.88058
rhand -6.8946 -34.4146
rfingers 7.12502
rthumb 18.9722 -63.5093
lclavicle -6.21202e-016 -1.47101e-014
lhumerus -39.1081 24.6009 78.8152
lradius 33.5262
lwrist -5.80313
lhand -6.40628 -12.5989
lfingers 7.12502
lthumb 19.4418 16.4492
rfemur -2.64182 1.09645 19.3717
rtibia 15.7276
rfoot -14.36 -7.73198
rtoes 12.4366
lfemur 1.93175 2.71466 -18.0811
ltibia 9.59718
lfoot -12.8447 4.68001
ltoes -28.9329
105
root 0.245542 17.9455 -3.34826 3.23505 -1.32032 -1.25233
lowerback 3.99269 -0.856308 -1.59817
upperback -0.251554 -1.1745 1.77759
thorax -2.42797 -0.554631 2.79689
lowerneck -14.0486 0.411716 -0.920055
upperneck 24.9007 1.00526 -0.76157
head 10.2667 0.280189 0.0151137
rclavicle -7.20594e-016 -3.77691e-015
rhumerus -28.4872 -22.4381 -78.8167
rradius 21.3137
rwrist 7.15606
rhand -6.68488 -34.5508
rfingers 7.12502
rthumb 19.1739 -63.6257
lclavicle -7.20594e-016 -3.77691e-015
lhumerus -39.1065 24.6127 78.8401
lradius 33.6373
lwrist -5.61029
lhand -6.53113 -12.4622
lfingers 7.12502
lthumb 19.3217 16.5979
rfemur -2.73231 1.16097 19.3929
rtibia 15.7966
rfoot -14.3785 -7.73997
rtoes 12.39
lfemur 1.88831 2.74287 -18.0778
ltibia 9.56654
lfoot -12.8015 4.73028
ltoes -28.925
106
root 0.248822 17.9462 -3.34623 3.28026 -1.42026 -1.27111
lowerback 4.06369 -0.801139 -1.50631
upperback -0.250471 -1.09744 1.75941
thorax -2.47335 -0.516866 2.7233
lowerneck -13.9204 0.447021 -0.867088
upperneck 24.857 1.03293 -0.737215
head 10.2259 0.301668 0.0179187
rclavicle 1.37907e-014 -1.98785e-014
rhumerus -28.7219 -23.0935 -78.5024
rradius 21.3928
rwrist 7.68309
rhand -6.39393 -34.8839
rfingers 7.12502
rthumb 19.4536 -63.9308
lclavicle 1.37907e-014 -1.98785e-014
lhumerus -39.0873 24.3671 78.8704
lradius 33.6687
lwrist -5.48038
lhand -6.66898 -12.4679
lfingers 7.12502
lthumb 19.1892 16.6055
rfemur -2.78474 1.18893 19.4021
rtibia 15.8391
rfoot -14.411 -7.69616
rtoes 12.1116
lfemur 1.86518 2.77845 -18.0698
ltibia 9.54891
lfoot -12.75 4.76976
ltoes -28.874
